<svg xmlns="http://www.w3.org/2000/svg" width="600" height="400" class="benchmark-chart">
        <rect width="600" height="400" fill="#151515"></rect><g class="x-axis" transform="translate(0, 350)" fill="none" font-size="10" font-family="sans-serif" text-anchor="middle"><path class="domain" stroke="#aaaaaa" d="M50.5,6V0.5H550.5V6"></path><g class="tick" opacity="1" transform="translate(138.70967741935488,0)"><line stroke="#aaaaaa" y2="6"></line><text fill="#aaaaaa" y="9" dy="0.71em">ISLISP 54fc314</text></g><g class="tick" opacity="1" transform="translate(300,0)"><line stroke="#aaaaaa" y2="6"></line><text fill="#aaaaaa" y="9" dy="0.71em">SBCL 2.3.11-2.fc40</text></g><g class="tick" opacity="1" transform="translate(461.2903225806452,0)"><line stroke="#aaaaaa" y2="6"></line><text fill="#aaaaaa" y="9" dy="0.71em">CCL Version 1.12.2 (v1.12.2) LinuxX8664</text></g></g><g class="y-axis" transform="translate(50, 0)" fill="none" font-size="10" font-family="sans-serif" text-anchor="end"><path class="domain" stroke="#aaaaaa" d="M-6,350.5H0.5V50.5H-6"></path><g class="tick" opacity="1" transform="translate(0,350.5)"><line stroke="#aaaaaa" x2="-6"></line><text fill="#aaaaaa" x="-9" dy="0.32em">0</text></g><g class="tick" opacity="1" transform="translate(0,329.07142857142856)"><line stroke="#aaaaaa" x2="-6"></line><text fill="#aaaaaa" x="-9" dy="0.32em">2</text></g><g class="tick" opacity="1" transform="translate(0,307.64285714285717)"><line stroke="#aaaaaa" x2="-6"></line><text fill="#aaaaaa" x="-9" dy="0.32em">4</text></g><g class="tick" opacity="1" transform="translate(0,286.2142857142857)"><line stroke="#aaaaaa" x2="-6"></line><text fill="#aaaaaa" x="-9" dy="0.32em">6</text></g><g class="tick" opacity="1" transform="translate(0,264.7857142857143)"><line stroke="#aaaaaa" x2="-6"></line><text fill="#aaaaaa" x="-9" dy="0.32em">8</text></g><g class="tick" opacity="1" transform="translate(0,243.35714285714283)"><line stroke="#aaaaaa" x2="-6"></line><text fill="#aaaaaa" x="-9" dy="0.32em">10</text></g><g class="tick" opacity="1" transform="translate(0,221.92857142857142)"><line stroke="#aaaaaa" x2="-6"></line><text fill="#aaaaaa" x="-9" dy="0.32em">12</text></g><g class="tick" opacity="1" transform="translate(0,200.5)"><line stroke="#aaaaaa" x2="-6"></line><text fill="#aaaaaa" x="-9" dy="0.32em">14</text></g><g class="tick" opacity="1" transform="translate(0,179.07142857142856)"><line stroke="#aaaaaa" x2="-6"></line><text fill="#aaaaaa" x="-9" dy="0.32em">16</text></g><g class="tick" opacity="1" transform="translate(0,157.64285714285714)"><line stroke="#aaaaaa" x2="-6"></line><text fill="#aaaaaa" x="-9" dy="0.32em">18</text></g><g class="tick" opacity="1" transform="translate(0,136.21428571428572)"><line stroke="#aaaaaa" x2="-6"></line><text fill="#aaaaaa" x="-9" dy="0.32em">20</text></g><g class="tick" opacity="1" transform="translate(0,114.78571428571428)"><line stroke="#aaaaaa" x2="-6"></line><text fill="#aaaaaa" x="-9" dy="0.32em">22</text></g><g class="tick" opacity="1" transform="translate(0,93.35714285714286)"><line stroke="#aaaaaa" x2="-6"></line><text fill="#aaaaaa" x="-9" dy="0.32em">24</text></g><g class="tick" opacity="1" transform="translate(0,71.92857142857142)"><line stroke="#aaaaaa" x2="-6"></line><text fill="#aaaaaa" x="-9" dy="0.32em">26</text></g><g class="tick" opacity="1" transform="translate(0,50.5)"><line stroke="#aaaaaa" x2="-6"></line><text fill="#aaaaaa" x="-9" dy="0.32em">28</text></g></g><g><g class="data-bar" text-anchor="middle"><rect x="66.12903225806454" y="57.14190368064284" width="145.16129032258064" height="292.8580963193572" rx="2" ry="2" fill="rgb(87, 209, 25)"></rect><text y="37.14190368064284" x="138.70967741935488" fill="rgb(87, 209, 25)">27</text></g><g class="data-bar" text-anchor="middle"><rect x="227.4193548387097" y="175.46697445207147" width="145.16129032258064" height="174.53302554792853" rx="2" ry="2" fill="rgb(66, 174, 47)"></rect><text y="155.46697445207147" x="300" fill="rgb(66, 174, 47)">16</text></g><g class="data-bar" text-anchor="middle"><rect x="388.7096774193549" y="58.35598220921424" width="145.16129032258064" height="291.64401779078577" rx="2" ry="2" fill="rgb(44, 138, 70)"></rect><text y="38.35598220921424" x="461.2903225806452" fill="rgb(44, 138, 70)">27</text></g></g></svg>