<svg xmlns="http://www.w3.org/2000/svg" width="400" height="400" class="benchmark-chart">
        <rect width="400" height="400" fill="#151515"></rect><g class="x-axis" transform="translate(0, 350)" fill="none" font-size="10" font-family="sans-serif" text-anchor="middle"><path class="domain" stroke="#aaaaaa" d="M50.5,6V0.5H350.5V6"></path><g class="tick" opacity="1" transform="translate(128.57142857142856,0)"><line stroke="#aaaaaa" y2="6"></line><text fill="#aaaaaa" y="9" dy="0.71em">SBCL</text></g><g class="tick" opacity="1" transform="translate(271.42857142857144,0)"><line stroke="#aaaaaa" y2="6"></line><text fill="#aaaaaa" y="9" dy="0.71em">ISLISP</text></g></g><g class="y-axis" transform="translate(50, 0)" fill="none" font-size="10" font-family="sans-serif" text-anchor="end"><path class="domain" stroke="#aaaaaa" d="M-6,350.5H0.5V50.5H-6"></path><g class="tick" opacity="1" transform="translate(0,350.5)"><line stroke="#aaaaaa" x2="-6"></line><text fill="#aaaaaa" x="-9" dy="0.32em">0</text></g><g class="tick" opacity="1" transform="translate(0,322.2549218283407)"><line stroke="#aaaaaa" x2="-6"></line><text fill="#aaaaaa" x="-9" dy="0.32em">5</text></g><g class="tick" opacity="1" transform="translate(0,294.00984365668126)"><line stroke="#aaaaaa" x2="-6"></line><text fill="#aaaaaa" x="-9" dy="0.32em">10</text></g><g class="tick" opacity="1" transform="translate(0,265.7647654850218)"><line stroke="#aaaaaa" x2="-6"></line><text fill="#aaaaaa" x="-9" dy="0.32em">15</text></g><g class="tick" opacity="1" transform="translate(0,237.51968731336254)"><line stroke="#aaaaaa" x2="-6"></line><text fill="#aaaaaa" x="-9" dy="0.32em">20</text></g><g class="tick" opacity="1" transform="translate(0,209.27460914170314)"><line stroke="#aaaaaa" x2="-6"></line><text fill="#aaaaaa" x="-9" dy="0.32em">25</text></g><g class="tick" opacity="1" transform="translate(0,181.02953097004377)"><line stroke="#aaaaaa" x2="-6"></line><text fill="#aaaaaa" x="-9" dy="0.32em">30</text></g><g class="tick" opacity="1" transform="translate(0,152.7844527983844)"><line stroke="#aaaaaa" x2="-6"></line><text fill="#aaaaaa" x="-9" dy="0.32em">35</text></g><g class="tick" opacity="1" transform="translate(0,124.53937462672505)"><line stroke="#aaaaaa" x2="-6"></line><text fill="#aaaaaa" x="-9" dy="0.32em">40</text></g><g class="tick" opacity="1" transform="translate(0,96.29429645506568)"><line stroke="#aaaaaa" x2="-6"></line><text fill="#aaaaaa" x="-9" dy="0.32em">45</text></g><g class="tick" opacity="1" transform="translate(0,68.0492182834063)"><line stroke="#aaaaaa" x2="-6"></line><text fill="#aaaaaa" x="-9" dy="0.32em">50</text></g></g><g><g class="data-bar" text-anchor="middle"><rect x="64.28571428571428" y="259.127905434856" width="128.57142857142858" height="90.87209456514398" rx="2" ry="2" fill="rgb(86, 208, 26)"></rect><text y="239.12790543485602" x="128.57142857142856" fill="rgb(86, 208, 26)">16</text></g><g class="data-bar" text-anchor="middle"><rect x="207.14285714285714" y="50" width="128.57142857142858" height="300" rx="2" ry="2" fill="rgb(54, 155, 59)"></rect><text y="30" x="271.42857142857144" fill="rgb(54, 155, 59)">53</text></g></g></svg>