<svg xmlns="http://www.w3.org/2000/svg" width="600" height="400" class="benchmark-chart">
        <rect width="600" height="400" fill="#151515"></rect><g class="x-axis" transform="translate(0, 350)" fill="none" font-size="10" font-family="sans-serif" text-anchor="middle"><path class="domain" stroke="#aaaaaa" d="M50.5,6V0.5H550.5V6"></path><g class="tick" opacity="1" transform="translate(138.70967741935488,0)"><line stroke="#aaaaaa" y2="6"></line><text fill="#aaaaaa" y="9" dy="0.71em">ISLISP ea9f3a3</text></g><g class="tick" opacity="1" transform="translate(300,0)"><line stroke="#aaaaaa" y2="6"></line><text fill="#aaaaaa" y="9" dy="0.71em">SBCL 2.3.11-2.fc40</text></g><g class="tick" opacity="1" transform="translate(461.2903225806452,0)"><line stroke="#aaaaaa" y2="6"></line><text fill="#aaaaaa" y="9" dy="0.71em">CCL Version 1.12.2 (v1.12.2) LinuxX8664</text></g></g><g class="y-axis" transform="translate(50, 0)" fill="none" font-size="10" font-family="sans-serif" text-anchor="end"><path class="domain" stroke="#aaaaaa" d="M-6,350.5H0.5V50.5H-6"></path><g class="tick" opacity="1" transform="translate(0,350.5)"><line stroke="#aaaaaa" x2="-6"></line><text fill="#aaaaaa" x="-9" dy="0.32em">0</text></g><g class="tick" opacity="1" transform="translate(0,313)"><line stroke="#aaaaaa" x2="-6"></line><text fill="#aaaaaa" x="-9" dy="0.32em">10</text></g><g class="tick" opacity="1" transform="translate(0,275.5)"><line stroke="#aaaaaa" x2="-6"></line><text fill="#aaaaaa" x="-9" dy="0.32em">20</text></g><g class="tick" opacity="1" transform="translate(0,238)"><line stroke="#aaaaaa" x2="-6"></line><text fill="#aaaaaa" x="-9" dy="0.32em">30</text></g><g class="tick" opacity="1" transform="translate(0,200.5)"><line stroke="#aaaaaa" x2="-6"></line><text fill="#aaaaaa" x="-9" dy="0.32em">40</text></g><g class="tick" opacity="1" transform="translate(0,163)"><line stroke="#aaaaaa" x2="-6"></line><text fill="#aaaaaa" x="-9" dy="0.32em">50</text></g><g class="tick" opacity="1" transform="translate(0,125.5)"><line stroke="#aaaaaa" x2="-6"></line><text fill="#aaaaaa" x="-9" dy="0.32em">60</text></g><g class="tick" opacity="1" transform="translate(0,88)"><line stroke="#aaaaaa" x2="-6"></line><text fill="#aaaaaa" x="-9" dy="0.32em">70</text></g><g class="tick" opacity="1" transform="translate(0,50.5)"><line stroke="#aaaaaa" x2="-6"></line><text fill="#aaaaaa" x="-9" dy="0.32em">80</text></g></g><g><g class="data-bar" text-anchor="middle"><rect x="66.12903225806454" y="116.79650061402498" width="145.16129032258064" height="233.20349938597502" rx="2" ry="2" fill="rgb(87, 209, 25)"></rect><text y="96.79650061402498" x="138.70967741935488" fill="rgb(87, 209, 25)">62</text></g><g class="data-bar" text-anchor="middle"><rect x="227.4193548387097" y="286.09567850465004" width="145.16129032258064" height="63.90432149534996" rx="2" ry="2" fill="rgb(66, 174, 47)"></rect><text y="266.09567850465004" x="300" fill="rgb(66, 174, 47)">17</text></g><g class="data-bar" text-anchor="middle"><rect x="388.7096774193549" y="79.70538830839996" width="145.16129032258064" height="270.29461169160004" rx="2" ry="2" fill="rgb(44, 138, 70)"></rect><text y="59.70538830839996" x="461.2903225806452" fill="rgb(44, 138, 70)">72</text></g></g></svg>