<svg xmlns="http://www.w3.org/2000/svg" width="600" height="400" class="benchmark-chart">
        <rect width="600" height="400" fill="#151515"></rect><g class="x-axis" transform="translate(0, 350)" fill="none" font-size="10" font-family="sans-serif" text-anchor="middle"><path class="domain" stroke="#aaaaaa" d="M50.5,6V0.5H550.5V6"></path><g class="tick" opacity="1" transform="translate(138.70967741935488,0)"><line stroke="#aaaaaa" y2="6"></line><text fill="#aaaaaa" y="9" dy="0.71em">ISLISP aec9a41</text></g><g class="tick" opacity="1" transform="translate(300,0)"><line stroke="#aaaaaa" y2="6"></line><text fill="#aaaaaa" y="9" dy="0.71em">SBCL 2.5.9-1.fc43</text></g><g class="tick" opacity="1" transform="translate(461.2903225806452,0)"><line stroke="#aaaaaa" y2="6"></line><text fill="#aaaaaa" y="9" dy="0.71em">CCL Version 1.12.2 (v1.12.2) LinuxX8664</text></g></g><g class="y-axis" transform="translate(50, 0)" fill="none" font-size="10" font-family="sans-serif" text-anchor="end"><path class="domain" stroke="#aaaaaa" d="M-6,350.5H0.5V50.5H-6"></path><g class="tick" opacity="1" transform="translate(0,350.5)"><line stroke="#aaaaaa" x2="-6"></line><text fill="#aaaaaa" x="-9" dy="0.32em">0</text></g><g class="tick" opacity="1" transform="translate(0,317.16666666666663)"><line stroke="#aaaaaa" x2="-6"></line><text fill="#aaaaaa" x="-9" dy="0.32em">5</text></g><g class="tick" opacity="1" transform="translate(0,283.8333333333333)"><line stroke="#aaaaaa" x2="-6"></line><text fill="#aaaaaa" x="-9" dy="0.32em">10</text></g><g class="tick" opacity="1" transform="translate(0,250.50000000000003)"><line stroke="#aaaaaa" x2="-6"></line><text fill="#aaaaaa" x="-9" dy="0.32em">15</text></g><g class="tick" opacity="1" transform="translate(0,217.16666666666669)"><line stroke="#aaaaaa" x2="-6"></line><text fill="#aaaaaa" x="-9" dy="0.32em">20</text></g><g class="tick" opacity="1" transform="translate(0,183.83333333333331)"><line stroke="#aaaaaa" x2="-6"></line><text fill="#aaaaaa" x="-9" dy="0.32em">25</text></g><g class="tick" opacity="1" transform="translate(0,150.5)"><line stroke="#aaaaaa" x2="-6"></line><text fill="#aaaaaa" x="-9" dy="0.32em">30</text></g><g class="tick" opacity="1" transform="translate(0,117.16666666666666)"><line stroke="#aaaaaa" x2="-6"></line><text fill="#aaaaaa" x="-9" dy="0.32em">35</text></g><g class="tick" opacity="1" transform="translate(0,83.83333333333334)"><line stroke="#aaaaaa" x2="-6"></line><text fill="#aaaaaa" x="-9" dy="0.32em">40</text></g><g class="tick" opacity="1" transform="translate(0,50.5)"><line stroke="#aaaaaa" x2="-6"></line><text fill="#aaaaaa" x="-9" dy="0.32em">45</text></g></g><g><g class="data-bar" text-anchor="middle"><rect x="66.12903225806454" y="305.61158456666664" width="145.16129032258064" height="44.388415433333364" rx="2" ry="2" fill="rgb(87, 209, 25)"></rect><text y="285.61158456666664" x="138.70967741935488" fill="rgb(87, 209, 25)">6.7</text></g><g class="data-bar" text-anchor="middle"><rect x="227.4193548387097" y="274.8540818133334" width="145.16129032258064" height="75.14591818666662" rx="2" ry="2" fill="rgb(66, 174, 47)"></rect><text y="254.85408181333338" x="300" fill="rgb(66, 174, 47)">11</text></g><g class="data-bar" text-anchor="middle"><rect x="388.7096774193549" y="54.21157338333336" width="145.16129032258064" height="295.78842661666664" rx="2" ry="2" fill="rgb(44, 138, 70)"></rect><text y="34.21157338333336" x="461.2903225806452" fill="rgb(44, 138, 70)">44</text></g></g></svg>