<svg xmlns="http://www.w3.org/2000/svg" width="400" height="400" class="benchmark-chart">
        <rect width="400" height="400" fill="#151515"></rect><g class="x-axis" transform="translate(0, 350)" fill="none" font-size="10" font-family="sans-serif" text-anchor="middle"><path class="domain" stroke="#aaaaaa" d="M50.5,6V0.5H350.5V6"></path><g class="tick" opacity="1" transform="translate(128.57142857142856,0)"><line stroke="#aaaaaa" y2="6"></line><text fill="#aaaaaa" y="9" dy="0.71em">SBCL</text></g><g class="tick" opacity="1" transform="translate(271.42857142857144,0)"><line stroke="#aaaaaa" y2="6"></line><text fill="#aaaaaa" y="9" dy="0.71em">ISLISP</text></g></g><g class="y-axis" transform="translate(50, 0)" fill="none" font-size="10" font-family="sans-serif" text-anchor="end"><path class="domain" stroke="#aaaaaa" d="M-6,350.5H0.5V50.5H-6"></path><g class="tick" opacity="1" transform="translate(0,350.5)"><line stroke="#aaaaaa" x2="-6"></line><text fill="#aaaaaa" x="-9" dy="0.32em">0</text></g><g class="tick" opacity="1" transform="translate(0,312.71377237023535)"><line stroke="#aaaaaa" x2="-6"></line><text fill="#aaaaaa" x="-9" dy="0.32em">1</text></g><g class="tick" opacity="1" transform="translate(0,274.92754474047075)"><line stroke="#aaaaaa" x2="-6"></line><text fill="#aaaaaa" x="-9" dy="0.32em">2</text></g><g class="tick" opacity="1" transform="translate(0,237.14131711070607)"><line stroke="#aaaaaa" x2="-6"></line><text fill="#aaaaaa" x="-9" dy="0.32em">3</text></g><g class="tick" opacity="1" transform="translate(0,199.35508948094144)"><line stroke="#aaaaaa" x2="-6"></line><text fill="#aaaaaa" x="-9" dy="0.32em">4</text></g><g class="tick" opacity="1" transform="translate(0,161.5688618511768)"><line stroke="#aaaaaa" x2="-6"></line><text fill="#aaaaaa" x="-9" dy="0.32em">5</text></g><g class="tick" opacity="1" transform="translate(0,123.78263422141215)"><line stroke="#aaaaaa" x2="-6"></line><text fill="#aaaaaa" x="-9" dy="0.32em">6</text></g><g class="tick" opacity="1" transform="translate(0,85.99640659164751)"><line stroke="#aaaaaa" x2="-6"></line><text fill="#aaaaaa" x="-9" dy="0.32em">7</text></g></g><g><g class="data-bar" text-anchor="middle"><rect x="64.28571428571428" y="299.7732950728178" width="128.57142857142858" height="50.2267049271822" rx="2" ry="2" fill="rgb(86, 208, 26)"></rect><text y="279.7732950728178" x="128.57142857142856" fill="rgb(86, 208, 26)">1.3</text></g><g class="data-bar" text-anchor="middle"><rect x="207.14285714285714" y="50" width="128.57142857142858" height="300" rx="2" ry="2" fill="rgb(54, 155, 59)"></rect><text y="30" x="271.42857142857144" fill="rgb(54, 155, 59)">7.9</text></g></g></svg>