<svg xmlns="http://www.w3.org/2000/svg" width="600" height="400" class="benchmark-chart">
        <rect width="600" height="400" fill="#151515"></rect><g class="x-axis" transform="translate(0, 350)" fill="none" font-size="10" font-family="sans-serif" text-anchor="middle"><path class="domain" stroke="#aaaaaa" d="M50.5,6V0.5H550.5V6"></path><g class="tick" opacity="1" transform="translate(138.70967741935488,0)"><line stroke="#aaaaaa" y2="6"></line><text fill="#aaaaaa" y="9" dy="0.71em">ISLISP aec9a41</text></g><g class="tick" opacity="1" transform="translate(300,0)"><line stroke="#aaaaaa" y2="6"></line><text fill="#aaaaaa" y="9" dy="0.71em">SBCL 2.5.9-1.fc43</text></g><g class="tick" opacity="1" transform="translate(461.2903225806452,0)"><line stroke="#aaaaaa" y2="6"></line><text fill="#aaaaaa" y="9" dy="0.71em">CCL Version 1.12.2 (v1.12.2) LinuxX8664</text></g></g><g class="y-axis" transform="translate(50, 0)" fill="none" font-size="10" font-family="sans-serif" text-anchor="end"><path class="domain" stroke="#aaaaaa" d="M-6,350.5H0.5V50.5H-6"></path><g class="tick" opacity="1" transform="translate(0,350.5)"><line stroke="#aaaaaa" x2="-6"></line><text fill="#aaaaaa" x="-9" dy="0.32em">0</text></g><g class="tick" opacity="1" transform="translate(0,323.22727272727275)"><line stroke="#aaaaaa" x2="-6"></line><text fill="#aaaaaa" x="-9" dy="0.32em">1</text></g><g class="tick" opacity="1" transform="translate(0,295.9545454545454)"><line stroke="#aaaaaa" x2="-6"></line><text fill="#aaaaaa" x="-9" dy="0.32em">2</text></g><g class="tick" opacity="1" transform="translate(0,268.6818181818182)"><line stroke="#aaaaaa" x2="-6"></line><text fill="#aaaaaa" x="-9" dy="0.32em">3</text></g><g class="tick" opacity="1" transform="translate(0,241.4090909090909)"><line stroke="#aaaaaa" x2="-6"></line><text fill="#aaaaaa" x="-9" dy="0.32em">4</text></g><g class="tick" opacity="1" transform="translate(0,214.13636363636363)"><line stroke="#aaaaaa" x2="-6"></line><text fill="#aaaaaa" x="-9" dy="0.32em">5</text></g><g class="tick" opacity="1" transform="translate(0,186.86363636363637)"><line stroke="#aaaaaa" x2="-6"></line><text fill="#aaaaaa" x="-9" dy="0.32em">6</text></g><g class="tick" opacity="1" transform="translate(0,159.5909090909091)"><line stroke="#aaaaaa" x2="-6"></line><text fill="#aaaaaa" x="-9" dy="0.32em">7</text></g><g class="tick" opacity="1" transform="translate(0,132.3181818181818)"><line stroke="#aaaaaa" x2="-6"></line><text fill="#aaaaaa" x="-9" dy="0.32em">8</text></g><g class="tick" opacity="1" transform="translate(0,105.04545454545453)"><line stroke="#aaaaaa" x2="-6"></line><text fill="#aaaaaa" x="-9" dy="0.32em">9</text></g><g class="tick" opacity="1" transform="translate(0,77.77272727272728)"><line stroke="#aaaaaa" x2="-6"></line><text fill="#aaaaaa" x="-9" dy="0.32em">10</text></g><g class="tick" opacity="1" transform="translate(0,50.5)"><line stroke="#aaaaaa" x2="-6"></line><text fill="#aaaaaa" x="-9" dy="0.32em">11</text></g></g><g><g class="data-bar" text-anchor="middle"><rect x="66.12903225806454" y="210.5432531921818" width="145.16129032258064" height="139.4567468078182" rx="2" ry="2" fill="rgb(87, 209, 25)"></rect><text y="190.5432531921818" x="138.70967741935488" fill="rgb(87, 209, 25)">5.1</text></g><g class="data-bar" text-anchor="middle"><rect x="227.4193548387097" y="74.41191968763633" width="145.16129032258064" height="275.5880803123637" rx="2" ry="2" fill="rgb(66, 174, 47)"></rect><text y="54.41191968763633" x="300" fill="rgb(66, 174, 47)">10</text></g><g class="data-bar" text-anchor="middle"><rect x="388.7096774193549" y="235.55980864672725" width="145.16129032258064" height="114.44019135327275" rx="2" ry="2" fill="rgb(44, 138, 70)"></rect><text y="215.55980864672725" x="461.2903225806452" fill="rgb(44, 138, 70)">4.2</text></g></g></svg>