<svg xmlns="http://www.w3.org/2000/svg" width="400" height="400" class="benchmark-chart">
        <rect width="400" height="400" fill="#151515"></rect><g class="x-axis" transform="translate(0, 350)" fill="none" font-size="10" font-family="sans-serif" text-anchor="middle"><path class="domain" stroke="#aaaaaa" d="M50.5,6V0.5H350.5V6"></path><g class="tick" opacity="1" transform="translate(128.57142857142856,0)"><line stroke="#aaaaaa" y2="6"></line><text fill="#aaaaaa" y="9" dy="0.71em">SBCL</text></g><g class="tick" opacity="1" transform="translate(271.42857142857144,0)"><line stroke="#aaaaaa" y2="6"></line><text fill="#aaaaaa" y="9" dy="0.71em">ISLISP</text></g></g><g class="y-axis" transform="translate(50, 0)" fill="none" font-size="10" font-family="sans-serif" text-anchor="end"><path class="domain" stroke="#aaaaaa" d="M-6,350.5H0.5V50.5H-6"></path><g class="tick" opacity="1" transform="translate(0,350.5)"><line stroke="#aaaaaa" x2="-6"></line><text fill="#aaaaaa" x="-9" dy="0.32em">0</text></g><g class="tick" opacity="1" transform="translate(0,311.6381914102725)"><line stroke="#aaaaaa" x2="-6"></line><text fill="#aaaaaa" x="-9" dy="0.32em">10</text></g><g class="tick" opacity="1" transform="translate(0,272.7763828205451)"><line stroke="#aaaaaa" x2="-6"></line><text fill="#aaaaaa" x="-9" dy="0.32em">20</text></g><g class="tick" opacity="1" transform="translate(0,233.91457423081755)"><line stroke="#aaaaaa" x2="-6"></line><text fill="#aaaaaa" x="-9" dy="0.32em">30</text></g><g class="tick" opacity="1" transform="translate(0,195.0527656410901)"><line stroke="#aaaaaa" x2="-6"></line><text fill="#aaaaaa" x="-9" dy="0.32em">40</text></g><g class="tick" opacity="1" transform="translate(0,156.19095705136266)"><line stroke="#aaaaaa" x2="-6"></line><text fill="#aaaaaa" x="-9" dy="0.32em">50</text></g><g class="tick" opacity="1" transform="translate(0,117.32914846163514)"><line stroke="#aaaaaa" x2="-6"></line><text fill="#aaaaaa" x="-9" dy="0.32em">60</text></g><g class="tick" opacity="1" transform="translate(0,78.46733987190768)"><line stroke="#aaaaaa" x2="-6"></line><text fill="#aaaaaa" x="-9" dy="0.32em">70</text></g></g><g><g class="data-bar" text-anchor="middle"><rect x="64.28571428571428" y="270.6664783825788" width="128.57142857142858" height="79.33352161742118" rx="2" ry="2" fill="rgb(86, 208, 26)"></rect><text y="250.66647838257882" x="128.57142857142856" fill="rgb(86, 208, 26)">20</text></g><g class="data-bar" text-anchor="middle"><rect x="207.14285714285714" y="50" width="128.57142857142858" height="300" rx="2" ry="2" fill="rgb(54, 155, 59)"></rect><text y="30" x="271.42857142857144" fill="rgb(54, 155, 59)">77</text></g></g></svg>