<svg xmlns="http://www.w3.org/2000/svg" width="600" height="400" class="benchmark-chart">
        <rect width="600" height="400" fill="#151515"></rect><g class="x-axis" transform="translate(0, 350)" fill="none" font-size="10" font-family="sans-serif" text-anchor="middle"><path class="domain" stroke="#aaaaaa" d="M50.5,6V0.5H550.5V6"></path><g class="tick" opacity="1" transform="translate(138.70967741935488,0)"><line stroke="#aaaaaa" y2="6"></line><text fill="#aaaaaa" y="9" dy="0.71em">ISLISP ea9f3a3</text></g><g class="tick" opacity="1" transform="translate(300,0)"><line stroke="#aaaaaa" y2="6"></line><text fill="#aaaaaa" y="9" dy="0.71em">SBCL 2.3.11-2.fc40</text></g><g class="tick" opacity="1" transform="translate(461.2903225806452,0)"><line stroke="#aaaaaa" y2="6"></line><text fill="#aaaaaa" y="9" dy="0.71em">CCL Version 1.12.2 (v1.12.2) LinuxX8664</text></g></g><g class="y-axis" transform="translate(50, 0)" fill="none" font-size="10" font-family="sans-serif" text-anchor="end"><path class="domain" stroke="#aaaaaa" d="M-6,350.5H0.5V50.5H-6"></path><g class="tick" opacity="1" transform="translate(0,350.5)"><line stroke="#aaaaaa" x2="-6"></line><text fill="#aaaaaa" x="-9" dy="0.32em">0</text></g><g class="tick" opacity="1" transform="translate(0,329.07142857142856)"><line stroke="#aaaaaa" x2="-6"></line><text fill="#aaaaaa" x="-9" dy="0.32em">5</text></g><g class="tick" opacity="1" transform="translate(0,307.64285714285717)"><line stroke="#aaaaaa" x2="-6"></line><text fill="#aaaaaa" x="-9" dy="0.32em">10</text></g><g class="tick" opacity="1" transform="translate(0,286.2142857142857)"><line stroke="#aaaaaa" x2="-6"></line><text fill="#aaaaaa" x="-9" dy="0.32em">15</text></g><g class="tick" opacity="1" transform="translate(0,264.7857142857143)"><line stroke="#aaaaaa" x2="-6"></line><text fill="#aaaaaa" x="-9" dy="0.32em">20</text></g><g class="tick" opacity="1" transform="translate(0,243.35714285714283)"><line stroke="#aaaaaa" x2="-6"></line><text fill="#aaaaaa" x="-9" dy="0.32em">25</text></g><g class="tick" opacity="1" transform="translate(0,221.92857142857142)"><line stroke="#aaaaaa" x2="-6"></line><text fill="#aaaaaa" x="-9" dy="0.32em">30</text></g><g class="tick" opacity="1" transform="translate(0,200.5)"><line stroke="#aaaaaa" x2="-6"></line><text fill="#aaaaaa" x="-9" dy="0.32em">35</text></g><g class="tick" opacity="1" transform="translate(0,179.07142857142856)"><line stroke="#aaaaaa" x2="-6"></line><text fill="#aaaaaa" x="-9" dy="0.32em">40</text></g><g class="tick" opacity="1" transform="translate(0,157.64285714285714)"><line stroke="#aaaaaa" x2="-6"></line><text fill="#aaaaaa" x="-9" dy="0.32em">45</text></g><g class="tick" opacity="1" transform="translate(0,136.21428571428572)"><line stroke="#aaaaaa" x2="-6"></line><text fill="#aaaaaa" x="-9" dy="0.32em">50</text></g><g class="tick" opacity="1" transform="translate(0,114.78571428571428)"><line stroke="#aaaaaa" x2="-6"></line><text fill="#aaaaaa" x="-9" dy="0.32em">55</text></g><g class="tick" opacity="1" transform="translate(0,93.35714285714286)"><line stroke="#aaaaaa" x2="-6"></line><text fill="#aaaaaa" x="-9" dy="0.32em">60</text></g><g class="tick" opacity="1" transform="translate(0,71.92857142857142)"><line stroke="#aaaaaa" x2="-6"></line><text fill="#aaaaaa" x="-9" dy="0.32em">65</text></g><g class="tick" opacity="1" transform="translate(0,50.5)"><line stroke="#aaaaaa" x2="-6"></line><text fill="#aaaaaa" x="-9" dy="0.32em">70</text></g></g><g><g class="data-bar" text-anchor="middle"><rect x="66.12903225806454" y="64.88019772622859" width="145.16129032258064" height="285.1198022737714" rx="2" ry="2" fill="rgb(87, 209, 25)"></rect><text y="44.88019772622859" x="138.70967741935488" fill="rgb(87, 209, 25)">67</text></g><g class="data-bar" text-anchor="middle"><rect x="227.4193548387097" y="270.6677888712286" width="145.16129032258064" height="79.3322111287714" rx="2" ry="2" fill="rgb(66, 174, 47)"></rect><text y="250.6677888712286" x="300" fill="rgb(66, 174, 47)">19</text></g><g class="data-bar" text-anchor="middle"><rect x="388.7096774193549" y="327.4048250348" width="145.16129032258064" height="22.595174965199988" rx="2" ry="2" fill="rgb(44, 138, 70)"></rect><text y="307.4048250348" x="461.2903225806452" fill="rgb(44, 138, 70)">5.3</text></g></g></svg>