<svg xmlns="http://www.w3.org/2000/svg" width="600" height="400" class="benchmark-chart">
        <rect width="600" height="400" fill="#151515"></rect><g class="x-axis" transform="translate(0, 350)" fill="none" font-size="10" font-family="sans-serif" text-anchor="middle"><path class="domain" stroke="#aaaaaa" d="M50.5,6V0.5H550.5V6"></path><g class="tick" opacity="1" transform="translate(138.70967741935488,0)"><line stroke="#aaaaaa" y2="6"></line><text fill="#aaaaaa" y="9" dy="0.71em">ISLISP 54fc314</text></g><g class="tick" opacity="1" transform="translate(300,0)"><line stroke="#aaaaaa" y2="6"></line><text fill="#aaaaaa" y="9" dy="0.71em">SBCL 2.3.11-2.fc40</text></g><g class="tick" opacity="1" transform="translate(461.2903225806452,0)"><line stroke="#aaaaaa" y2="6"></line><text fill="#aaaaaa" y="9" dy="0.71em">CCL Version 1.12.2 (v1.12.2) LinuxX8664</text></g></g><g class="y-axis" transform="translate(50, 0)" fill="none" font-size="10" font-family="sans-serif" text-anchor="end"><path class="domain" stroke="#aaaaaa" d="M-6,350.5H0.5V50.5H-6"></path><g class="tick" opacity="1" transform="translate(0,350.5)"><line stroke="#aaaaaa" x2="-6"></line><text fill="#aaaaaa" x="-9" dy="0.32em">0</text></g><g class="tick" opacity="1" transform="translate(0,327.42307692307696)"><line stroke="#aaaaaa" x2="-6"></line><text fill="#aaaaaa" x="-9" dy="0.32em">2</text></g><g class="tick" opacity="1" transform="translate(0,304.3461538461538)"><line stroke="#aaaaaa" x2="-6"></line><text fill="#aaaaaa" x="-9" dy="0.32em">4</text></g><g class="tick" opacity="1" transform="translate(0,281.2692307692308)"><line stroke="#aaaaaa" x2="-6"></line><text fill="#aaaaaa" x="-9" dy="0.32em">6</text></g><g class="tick" opacity="1" transform="translate(0,258.1923076923077)"><line stroke="#aaaaaa" x2="-6"></line><text fill="#aaaaaa" x="-9" dy="0.32em">8</text></g><g class="tick" opacity="1" transform="translate(0,235.1153846153846)"><line stroke="#aaaaaa" x2="-6"></line><text fill="#aaaaaa" x="-9" dy="0.32em">10</text></g><g class="tick" opacity="1" transform="translate(0,212.03846153846152)"><line stroke="#aaaaaa" x2="-6"></line><text fill="#aaaaaa" x="-9" dy="0.32em">12</text></g><g class="tick" opacity="1" transform="translate(0,188.96153846153848)"><line stroke="#aaaaaa" x2="-6"></line><text fill="#aaaaaa" x="-9" dy="0.32em">14</text></g><g class="tick" opacity="1" transform="translate(0,165.8846153846154)"><line stroke="#aaaaaa" x2="-6"></line><text fill="#aaaaaa" x="-9" dy="0.32em">16</text></g><g class="tick" opacity="1" transform="translate(0,142.80769230769232)"><line stroke="#aaaaaa" x2="-6"></line><text fill="#aaaaaa" x="-9" dy="0.32em">18</text></g><g class="tick" opacity="1" transform="translate(0,119.73076923076923)"><line stroke="#aaaaaa" x2="-6"></line><text fill="#aaaaaa" x="-9" dy="0.32em">20</text></g><g class="tick" opacity="1" transform="translate(0,96.65384615384616)"><line stroke="#aaaaaa" x2="-6"></line><text fill="#aaaaaa" x="-9" dy="0.32em">22</text></g><g class="tick" opacity="1" transform="translate(0,73.57692307692307)"><line stroke="#aaaaaa" x2="-6"></line><text fill="#aaaaaa" x="-9" dy="0.32em">24</text></g><g class="tick" opacity="1" transform="translate(0,50.5)"><line stroke="#aaaaaa" x2="-6"></line><text fill="#aaaaaa" x="-9" dy="0.32em">26</text></g></g><g><g class="data-bar" text-anchor="middle"><rect x="66.12903225806454" y="54.688992105153865" width="145.16129032258064" height="295.3110078948461" rx="2" ry="2" fill="rgb(87, 209, 25)"></rect><text y="34.688992105153865" x="138.70967741935488" fill="rgb(87, 209, 25)">26</text></g><g class="data-bar" text-anchor="middle"><rect x="227.4193548387097" y="120.10697071861537" width="145.16129032258064" height="229.89302928138463" rx="2" ry="2" fill="rgb(66, 174, 47)"></rect><text y="100.10697071861537" x="300" fill="rgb(66, 174, 47)">20</text></g><g class="data-bar" text-anchor="middle"><rect x="388.7096774193549" y="278.0838576359231" width="145.16129032258064" height="71.9161423640769" rx="2" ry="2" fill="rgb(44, 138, 70)"></rect><text y="258.0838576359231" x="461.2903225806452" fill="rgb(44, 138, 70)">6.2</text></g></g></svg>