<?xml version="1.0" encoding="UTF-8" standalone="no"?>
<!-- Created with Inkscape (http://www.inkscape.org/) -->

<svg
        width="512"
        height="320"
        viewBox="0 0 135.46666 84.66704"
        version="1.1"
        id="svg1"
        sodipodi:docname="icon.svg"
        inkscape:version="1.3.2 (091e20ef0f, 2023-11-25)"
        xmlns:inkscape="http://www.inkscape.org/namespaces/inkscape"
        xmlns:sodipodi="http://sodipodi.sourceforge.net/DTD/sodipodi-0.dtd"
        xmlns:xlink="http://www.w3.org/1999/xlink"
        xmlns="http://www.w3.org/2000/svg"
>
  <sodipodi:namedview
     id="namedview1"
     pagecolor="#ffffff"
     bordercolor="#000000"
     borderopacity="0.25"
     inkscape:showpageshadow="2"
     inkscape:pageopacity="0.0"
     inkscape:pagecheckerboard="false"
     inkscape:deskcolor="#d1d1d1"
     inkscape:document-units="mm"
     inkscape:zoom="0.97102974"
     inkscape:cx="200.30282"
     inkscape:cy="242.52604"
     inkscape:window-width="1920"
     inkscape:window-height="1011"
     inkscape:window-x="0"
     inkscape:window-y="32"
     inkscape:window-maximized="1"
     inkscape:current-layer="layer1" />
  <defs
     id="defs1">
    <linearGradient
       id="linearGradient169"
       inkscape:collect="always">
      <stop
         style="stop-color:#5ad715;stop-opacity:1;"
         offset="0"
         id="stop169" />
      <stop
         style="stop-color:#00588d;stop-opacity:1;"
         offset="1"
         id="stop170" />
    </linearGradient>
    <clipPath
       clipPathUnits="userSpaceOnUse"
       id="clipPath51">
      <path
         id="path51"
         style="stroke-width:0.0999999;stroke-linecap:square;paint-order:markers fill stroke;stop-color:#000000"
         d="m 1806.4991,-753.5228 h 1637.2646 v 66.90533 H 1806.4991 Z" />
    </clipPath>
    <clipPath
       clipPathUnits="userSpaceOnUse"
       id="clipPath52">
      <path
         id="path52"
         style="stroke-width:0.1;stroke-linecap:square;paint-order:markers fill stroke;stop-color:#000000"
         d="m -880.82767,-187.29769 h 1640.84 v 73.28155 h -1640.84 z" />
    </clipPath>
    <linearGradient
       inkscape:collect="always"
       xlink:href="#linearGradient169"
       id="linearGradient170"
       x1="3.387352"
       y1="70.420799"
       x2="133.41466"
       y2="70.420799"
       gradientUnits="userSpaceOnUse" />
    <filter
       style="color-interpolation-filters:sRGB"
       inkscape:label="Drop Shadow"
       id="filter192"
       x="0"
       y="0"
       width="1"
       height="1.0244735">
      <feFlood
         result="flood"
         in="SourceGraphic"
         flood-opacity="1"
         flood-color="rgb(0,0,0)"
         id="feFlood191" />
      <feGaussianBlur
         result="blur"
         in="SourceGraphic"
         stdDeviation="0"
         id="feGaussianBlur191" />
      <feOffset
         result="offset"
         in="blur"
         dx="0.000000"
         dy="2.000000"
         id="feOffset191" />
      <feComposite
         result="comp1"
         operator="in"
         in="flood"
         in2="offset"
         id="feComposite191" />
      <feComposite
         result="comp2"
         operator="over"
         in="SourceGraphic"
         in2="comp1"
         id="feComposite192" />
    </filter>
    <linearGradient
       inkscape:collect="always"
       xlink:href="#linearGradient169"
       id="linearGradient193"
       gradientUnits="userSpaceOnUse"
       x1="3.387352"
       y1="70.420799"
       x2="133.41466"
       y2="70.420799" />
    <linearGradient
       inkscape:collect="always"
       xlink:href="#linearGradient169"
       id="linearGradient194"
       gradientUnits="userSpaceOnUse"
       x1="3.387352"
       y1="70.420799"
       x2="133.41466"
       y2="70.420799" />
    <linearGradient
       inkscape:collect="always"
       xlink:href="#linearGradient169"
       id="linearGradient195"
       gradientUnits="userSpaceOnUse"
       x1="3.387352"
       y1="70.420799"
       x2="133.41466"
       y2="70.420799" />
    <linearGradient
       inkscape:collect="always"
       xlink:href="#linearGradient169"
       id="linearGradient196"
       gradientUnits="userSpaceOnUse"
       x1="3.387352"
       y1="70.420799"
       x2="133.41466"
       y2="70.420799" />
    <linearGradient
       inkscape:collect="always"
       xlink:href="#linearGradient169"
       id="linearGradient197"
       gradientUnits="userSpaceOnUse"
       x1="3.387352"
       y1="70.420799"
       x2="133.41466"
       y2="70.420799" />
    <linearGradient
       inkscape:collect="always"
       xlink:href="#linearGradient169"
       id="linearGradient198"
       gradientUnits="userSpaceOnUse"
       x1="3.387352"
       y1="70.420799"
       x2="133.41466"
       y2="70.420799" />
  </defs>
  <g
     inkscape:label="Layer 1"
     inkscape:groupmode="layer"
     id="layer1">
    <g
       id="g155"
       style="fill:url(#linearGradient170);fill-opacity:1;stroke:none;filter:url(#filter192)"
       transform="translate(-1.9073435,-28.882632)">
      <path
         style="color:#000000;fill:url(#linearGradient193);fill-opacity:1;stroke:none;stroke-width:0.389996;stroke-dasharray:none;stroke-opacity:1"
         d="m 43.351015,107.7518 c -1.609924,-8.854547 -0.03001,-35.638017 0.271609,-49.61288 0.0471,-2.182176 0.235444,-4.159323 0.382894,-6.198281 C 29.433207,51.171288 19.354443,49.507596 13.319886,47.397122 9.5318196,46.072315 7.0978452,44.746939 5.6073006,43.74667 4.1167575,42.746403 3.8237382,41.888093 3.8237382,41.888093 L 4.1103806,38.0612 c 0,0 18.6559424,12.449743 53.2492374,10.223854 7.673033,-0.493717 -4.827932,-7.383894 -7.099898,-4.82793 -2.271969,2.55596 2.271966,50.267277 11.643833,65.319066 L 43.514814,107.5692 m 8.460119,-74.560842 c 2.959146,0 7.394615,1.222147 11.671077,3.060275 4.276463,1.838129 8.404398,4.295621 10.781496,6.722242 1.18855,1.21331 1.931364,2.416121 2.064174,3.500747 0.132808,1.084625 -0.305334,2.073507 -1.583397,2.968151 -2.556124,1.789286 -8.488168,3.040123 -19.317446,3.040123 -4.264475,0 -7.933176,-0.172818 -11.547286,-0.356985 0.329586,-4.314951 0.816846,-8.354314 1.70719,-11.458038 0.667176,-2.325761 1.511409,-4.208111 2.544952,-5.495829 1.033543,-1.287718 2.236499,-1.980686 3.67924,-1.980686 z"
         id="path21"
         sodipodi:nodetypes="cscssccssccsssssscsss" />
      <path
         style="color:#000000;fill:url(#linearGradient194);fill-opacity:1;stroke:none;stroke-width:0.389996;stroke-dasharray:none;stroke-opacity:1"
         d="m 86.271319,48.476711 c 0,16.264431 -0.60212,37.046346 -2.002303,44.54732 -1.400182,7.500969 -3.974238,11.749049 -8.757626,15.137279 -1.149796,0.81444 -2.24815,0.7416 -3.411501,-0.0173 -1.163351,-0.75886 -2.354653,-2.23639 -3.515143,-4.21471 C 66.263767,99.972742 64.050367,94.028738 62.141758,87.870827 58.324543,75.554976 55.064683,51.378863 55.064683,51.378863 l 2.791927,-0.04086 c 0,0 13.822781,58.549587 21.796691,31.736549 0.693705,-2.332648 1.52367,-12.823246 1.489091,-16.935875 -0.134205,-15.961272 -0.863264,-17.50995 -0.863264,-17.50995 l 6.048076,0.08232"
         id="path22"
         sodipodi:nodetypes="csssssccsscc" />
      <path
         id="path25"
         style="fill:url(#linearGradient195);fill-opacity:1;stroke:none;stroke-width:0.389996;stroke-dasharray:none;stroke-opacity:1"
         d="m 28.676029,29.683327 c 0,0 -14.882468,32.3999 -23.5443436,58.101522 C -3.5301909,113.48648 22.502205,115.26775 29.888058,106.57732 40.382385,94.229349 41.313847,79.31161 41.313847,79.31161 41.558701,79.468031 39.475303,72.355699 39.475303,72.355699 35.172872,83.506641 28.281133,91.995563 23.053461,94.778134 21.746543,95.473773 20.539158,95.79935 19.500894,95.725281 18.462628,95.651287 17.587113,95.18879 16.886848,94.25992 15.486321,92.402195 15.691637,88.610436 16.391965,82.507579 19.196939,58.064225 33.253751,29.560202 33.253751,29.560202 Z"
         sodipodi:nodetypes="cssccscsscc" />
      <path
         style="fill:url(#linearGradient196);fill-opacity:1;stroke:none;stroke-width:0.389996;stroke-dasharray:none;stroke-opacity:1"
         d="m 85.490124,42.938031 -5.189952,1.042065 -3.11264,-14.107286 7.198107,1.166903 z"
         id="path28"
         sodipodi:nodetypes="ccccc" />
      <g
         id="g29"
         transform="matrix(1.4739989,0,0,1.4739989,-12.929375,-73.549203)"
         style="fill:url(#linearGradient198);fill-opacity:1;stroke:none;stroke-width:0.264584;stroke-dasharray:none;stroke-opacity:1">
        <path
           style="color:#000000;fill:url(#linearGradient197);fill-opacity:1;stroke:none;stroke-width:0.264584;stroke-dasharray:none;stroke-opacity:1"
           d="m 95.711429,113.13156 c -17.294265,-2.00051 -20.953545,10.86933 -20.953545,10.86933 0,0 -3.325912,-0.46184 -6.63862,-0.43254 2.997248,-21.52569 1.498624,-48.364682 1.498624,-48.364682 l 5.135783,-2.097482 1.542105,40.234504 c 1.403256,-0.6845 3.567066,-7.08924 15.794608,-5.83809 -6.585855,-6.8879 -7.445648,-7.11202 -12.659943,-10.891437 l 4.994905,-2.314047 c 0,0 12.573115,12.096314 14.858335,16.177454 -0.144793,0.0806 -3.492546,2.61035 -3.572252,2.65699 z"
           id="path24"
           sodipodi:nodetypes="ccccccccccc" />
      </g>
    </g>
  </g>
</svg>
